<?xml version="1.0" standalone="no"?>
<!DOCTYPE svg PUBLIC "-//W3C//DTD SVG 20010904//EN"
 "http://www.w3.org/TR/2001/REC-SVG-20010904/DTD/svg10.dtd">
<svg version="1.0" xmlns="http://www.w3.org/2000/svg"
 width="307.000000pt" height="307.000000pt" viewBox="0 0 307.000000 307.000000"
 preserveAspectRatio="xMidYMid meet">
<metadata>
Created by potrace 1.11, written by Peter Selinger 2001-2013
</metadata>
<g transform="translate(0.000000,307.000000) scale(0.100000,-0.100000)"
fill="#000000" stroke="none">
<path d="M1624 2911 c-21 -11 -35 -28 -42 -51 -6 -19 -20 -62 -31 -95 -18 -50
-28 -116 -32 -197 0 -17 -18 -26 -20 -10 -2 11 -5 42 -13 123 -12 124 -18 148
-42 174 -28 31 -65 32 -110 4 -37 -22 -53 -45 -61 -87 -3 -15 -6 -31 -7 -37
-17 -70 -17 -85 8 -156 15 -41 28 -78 29 -84 1 -5 7 -16 11 -24 22 -36 76
-144 76 -153 0 -5 9 -22 19 -37 24 -33 51 -126 61 -211 17 -142 33 -167 43
-70 10 96 63 240 104 285 53 59 94 118 128 185 78 156 91 231 55 330 -11 30
-20 55 -20 56 0 0 -19 14 -42 31 -56 39 -76 43 -114 24z"/>
<path d="M2016 2665 c-38 -28 -32 -185 8 -220 7 -5 22 -26 34 -45 42 -68 39
-65 56 -47 18 17 22 32 6 22 -5 -3 -10 1 -10 10 0 9 -9 37 -21 62 -15 32 -18
48 -10 56 6 6 11 15 11 21 0 6 -5 5 -12 -2 -19 -19 -30 -14 -26 12 1 13 -4 31
-11 40 -12 14 -12 24 -3 50 21 56 14 68 -22 41z"/>
<path d="M1725 2265 c-53 -55 -100 -109 -106 -120 -5 -11 -20 -38 -34 -60 -13
-22 -24 -50 -25 -63 0 -13 -7 -36 -14 -51 -17 -32 -21 -169 -8 -244 8 -43 9
-79 2 -127 -2 -15 -19 29 -24 65 -13 83 -97 272 -166 375 -44 65 -119 142
-130 135 -5 -3 -21 -31 -35 -62 -23 -47 -26 -64 -20 -107 3 -28 12 -60 19 -71
7 -11 16 -32 20 -47 12 -49 74 -142 137 -203 33 -33 74 -84 91 -112 16 -29 34
-56 39 -59 5 -3 7 -9 4 -14 -3 -5 -1 -19 4 -32 5 -13 12 -32 16 -43 6 -18 8
-17 20 10 12 27 13 28 14 7 2 -42 19 -13 26 43 10 87 46 153 125 231 38 38 70
73 70 77 0 5 8 21 18 35 48 71 86 215 83 317 -1 28 -1 77 -1 110 0 33 -6 71
-14 85 l-14 25 -97 -100z"/>
<path d="M2577 2169 c-8 -29 3 -47 15 -25 5 9 5 23 0 32 -8 14 -10 13 -15 -7z"/>
<path d="M1981 2166 c-6 -7 -13 -35 -15 -62 -2 -27 -6 -56 -9 -64 -3 -8 -18
-52 -33 -97 -15 -46 -31 -83 -36 -83 -4 0 -8 -6 -8 -14 0 -7 -7 -19 -15 -26
-8 -7 -15 -19 -15 -27 0 -8 -10 -23 -22 -34 -13 -10 -18 -18 -11 -19 19 0 -24
-77 -67 -120 -22 -22 -40 -44 -40 -48 0 -5 -13 -21 -30 -37 -16 -16 -30 -34
-30 -41 0 -6 -7 -18 -16 -25 -19 -16 -64 -114 -64 -139 0 -10 -3 -26 -6 -34
-6 -15 -8 -15 -20 1 -9 14 -16 15 -24 7 -8 -8 -9 -14 -1 -18 6 -4 11 -16 11
-27 0 -10 5 -19 10 -19 15 0 12 -17 -7 -36 -13 -13 -14 -19 -5 -22 7 -2 17
-12 22 -22 8 -15 6 -17 -10 -13 -20 5 -33 31 -35 68 -4 52 -30 146 -57 199
-32 63 -109 142 -187 190 -46 29 -100 75 -101 87 0 4 -29 37 -64 74 -67 70
-80 72 -78 10 3 -65 77 -243 117 -281 12 -11 26 -27 31 -35 5 -8 34 -34 64
-59 30 -25 57 -48 58 -52 2 -5 8 -8 14 -8 6 0 42 -30 80 -67 68 -67 128 -166
128 -214 0 -10 5 -19 10 -19 6 0 10 6 10 14 0 8 3 23 6 33 5 15 4 15 -5 3 -6
-8 -11 -10 -11 -5 0 12 20 43 20 32 0 -20 33 26 42 59 11 41 39 72 148 165 41
35 77 67 78 71 2 5 9 8 15 9 11 0 37 29 135 152 92 114 139 248 134 382 -5
127 -6 139 -19 153 -7 7 -16 18 -20 25 -5 7 -20 20 -35 29 -21 14 -28 15 -37
4z"/>
<path d="M2607 2106 c-2 -17 -1 -38 3 -46 21 -42 38 -89 45 -120 4 -19 12 -41
18 -48 6 -7 12 -41 14 -75 3 -34 9 -67 13 -72 9 -11 5 -187 -5 -252 -6 -38
-10 -69 -19 -133 -4 -25 -11 -49 -16 -54 -6 -6 -10 -15 -10 -22 0 -7 -10 -34
-22 -61 -12 -26 -22 -50 -23 -53 0 -3 -8 -21 -17 -40 -8 -19 -21 -51 -29 -70
-7 -19 -25 -53 -39 -75 -15 -22 -30 -50 -34 -62 -5 -17 -15 -23 -36 -23 -33 0
-49 -18 -29 -32 10 -7 7 -8 -12 -4 -20 4 -30 -1 -47 -24 -12 -16 -22 -33 -22
-38 0 -12 -76 -82 -90 -82 -6 0 -9 -4 -6 -8 2 -4 -15 -21 -39 -37 -25 -17 -45
-33 -45 -37 0 -5 -6 -8 -13 -8 -7 0 -17 -8 -23 -18 -16 -25 -225 -130 -289
-146 -5 -1 -25 -10 -43 -20 -18 -9 -47 -19 -63 -21 -17 -2 -41 -11 -54 -19
-14 -9 -32 -16 -41 -16 -10 0 -39 -24 -66 -52 -49 -55 -62 -50 -32 13 24 49
64 89 90 89 13 0 26 5 29 10 4 6 10 8 15 5 5 -3 20 1 34 10 26 18 186 85 186
79 0 -9 159 82 190 110 20 17 59 50 87 74 28 24 71 69 95 100 24 31 62 77 85
102 24 25 43 50 43 57 0 6 4 13 8 15 12 5 92 147 92 163 0 8 4 16 9 19 5 3 14
28 21 56 7 27 15 50 20 50 6 0 18 54 25 120 7 66 19 208 18 220 -3 34 -12 88
-24 135 -6 28 -16 67 -21 87 -8 36 -49 88 -68 88 -13 0 -50 -51 -50 -69 0 -9
-8 -27 -17 -40 -12 -18 -13 -22 -2 -16 12 8 12 6 0 -8 -11 -14 -11 -17 0 -17
9 0 10 -3 4 -8 -6 -4 -11 -46 -12 -94 -1 -48 -8 -98 -15 -110 -7 -13 -11 -28
-10 -34 1 -7 -3 -25 -9 -40 -7 -16 -13 -36 -14 -44 -1 -8 -6 -23 -10 -32 -5
-13 -3 -18 9 -18 20 0 41 37 24 42 -9 3 -9 6 0 12 7 4 17 -6 27 -30 14 -34 14
-38 -8 -68 -12 -17 -20 -31 -18 -31 10 0 -12 -45 -22 -45 -11 -1 -27 -31 -57
-108 -7 -18 -20 -38 -30 -45 -9 -7 -30 -32 -46 -57 -31 -50 -89 -107 -116
-116 -10 -3 -18 -10 -18 -15 0 -5 -6 -9 -14 -9 -7 0 -19 -7 -26 -15 -7 -8 -19
-15 -26 -15 -8 0 -33 -8 -57 -19 -23 -10 -82 -33 -132 -51 -49 -18 -97 -39
-106 -46 -8 -8 -23 -14 -33 -14 -24 0 -61 -40 -87 -94 -17 -36 -26 -45 -40
-41 -14 5 -18 0 -21 -21 -3 -28 -28 -47 -28 -22 0 8 -14 35 -30 60 -34 52
-122 103 -225 133 -33 10 -75 24 -93 32 -18 8 -41 12 -50 9 -10 -4 -27 1 -38
9 -10 8 -27 15 -36 15 -9 0 -24 7 -32 16 -9 8 -26 16 -38 17 -40 2 -165 145
-221 252 -60 116 -64 133 -53 245 8 72 4 101 -25 235 -6 28 -12 58 -13 67 -1
10 -5 21 -9 24 -4 4 -7 15 -7 25 0 24 -30 33 -45 13 -9 -13 -14 -14 -20 -4 -6
10 -9 9 -16 -1 -11 -18 -11 -32 0 -25 10 6 8 -21 -3 -46 -5 -10 -6 -24 -3 -32
3 -8 3 -17 0 -20 -13 -12 -17 -133 -8 -221 6 -61 12 -100 15 -100 2 0 4 -22 5
-50 1 -27 8 -51 14 -53 6 -2 11 -14 11 -27 0 -13 3 -25 8 -27 12 -5 50 -93 58
-133 3 -20 13 -39 20 -42 8 -3 14 -10 14 -17 0 -6 13 -27 28 -46 16 -19 38
-51 50 -70 11 -19 30 -41 41 -48 12 -7 21 -17 21 -24 0 -10 74 -84 137 -136
51 -41 135 -92 144 -86 5 3 9 0 9 -5 0 -6 7 -11 15 -11 7 0 18 -6 22 -14 4 -8
11 -15 16 -15 22 1 67 -14 67 -21 0 -5 26 -14 58 -20 31 -7 71 -19 87 -28 17
-9 36 -15 43 -14 6 2 12 -4 12 -11 0 -8 7 -17 15 -21 8 -3 15 -12 15 -21 0 -8
5 -24 12 -35 21 -33 1 -34 -29 -1 -15 17 -37 32 -48 34 -50 8 -277 78 -321 98
-22 10 -44 19 -48 19 -5 0 -36 19 -70 42 -33 24 -73 49 -89 57 -15 8 -27 18
-27 23 0 4 -5 8 -10 8 -6 0 -33 22 -61 50 -27 27 -53 50 -57 50 -4 0 -13 14
-21 31 -8 19 -18 28 -27 25 -8 -3 -14 -1 -14 4 0 10 -8 21 -72 97 -21 24 -38
48 -38 54 0 5 -7 9 -15 9 -9 0 -15 9 -15 23 0 18 -2 19 -10 7 -11 -18 -12 -14
-10 68 1 49 -2 62 -13 62 -9 0 -18 6 -20 13 -4 10 -6 10 -6 0 -1 -7 -5 -13
-11 -13 -5 0 -10 18 -10 41 0 22 -4 38 -9 35 -5 -3 -12 2 -15 11 -6 15 -8 15
-17 3 -8 -11 -9 -8 -5 13 7 29 -2 35 -22 15 -9 -9 -12 -9 -12 0 0 6 8 16 19
21 10 6 19 21 19 35 0 22 -3 24 -24 16 -23 -9 -32 -1 -17 14 15 15 9 46 -11
53 -12 4 -24 6 -28 5 -4 -1 -3 10 2 24 13 33 13 34 -4 34 -23 0 -29 19 -16 51
10 24 10 32 0 42 -9 8 -11 8 -7 1 4 -7 0 -15 -9 -18 -22 -8 -22 -9 -16 19 6
31 -6 33 -17 3 -10 -28 4 -49 27 -42 14 5 13 2 -3 -13 -21 -19 -31 -73 -14
-73 6 0 8 -4 5 -9 -4 -5 -1 -22 5 -38 14 -34 19 -92 8 -99 -12 -7 1 -74 23
-123 12 -24 22 -51 23 -60 1 -9 4 -23 7 -31 4 -8 11 -37 18 -64 6 -27 18 -62
26 -77 8 -16 14 -31 14 -34 -1 -3 13 -22 29 -41 17 -19 31 -41 31 -49 0 -7 6
-20 13 -27 7 -7 14 -15 14 -18 1 -15 62 -107 83 -128 14 -13 25 -28 25 -32 0
-8 52 -59 158 -156 20 -19 41 -34 45 -34 5 0 19 -11 32 -25 13 -14 30 -25 37
-25 8 0 31 -14 52 -30 21 -17 44 -28 52 -25 9 3 26 -3 39 -15 13 -11 36 -20
51 -20 15 0 31 -5 34 -11 4 -5 17 -9 29 -7 12 1 35 -5 50 -15 15 -10 52 -20
84 -22 31 -2 80 -10 109 -18 42 -11 55 -11 75 -1 12 7 32 13 43 14 12 0 26 5
32 11 8 8 13 8 17 0 4 -6 16 -11 26 -11 10 0 20 -5 22 -12 3 -7 10 -8 17 -4 7
5 33 9 58 11 25 2 50 8 56 14 6 6 28 11 48 11 21 0 41 5 44 10 3 6 16 10 29
10 12 0 31 7 42 15 10 8 28 15 39 15 12 0 26 5 33 12 7 7 12 9 12 5 0 -4 9 -3
21 3 11 6 29 13 40 15 11 2 32 13 47 23 15 11 37 22 49 26 11 4 24 13 27 21 3
8 17 15 31 15 14 0 34 9 45 20 11 11 25 20 31 20 5 0 7 5 4 10 -3 6 1 10 9 10
9 0 16 7 16 15 0 8 7 15 15 15 8 0 15 6 15 14 0 8 11 17 25 20 14 4 25 11 25
16 0 5 6 7 14 4 8 -3 20 2 27 11 8 9 22 24 32 33 9 9 17 24 17 34 0 11 7 18
19 18 12 0 23 9 27 23 7 24 38 57 53 57 5 0 12 14 16 30 4 17 11 28 16 24 5
-3 9 0 9 5 0 10 19 36 48 66 6 8 12 20 12 28 0 9 3 17 8 19 9 4 98 183 108
218 8 26 13 55 15 80 1 8 6 20 11 27 5 7 7 17 3 23 -3 5 0 10 7 10 9 0 14 16
15 48 1 53 11 121 18 133 3 4 0 9 -7 11 -10 4 -9 8 2 19 19 19 16 143 -3 132
-9 -5 -9 -3 0 8 15 19 5 72 -13 65 -8 -3 -14 -1 -14 4 0 6 7 10 15 10 8 0 15
9 15 21 0 11 -4 18 -9 15 -12 -8 -34 21 -28 36 4 8 6 7 6 -4 1 -12 9 -18 24
-18 19 1 20 2 7 13 -8 7 -15 26 -15 43 1 21 -3 30 -11 27 -13 -5 -37 54 -28
69 3 5 1 14 -4 21 -6 7 -18 35 -27 62 -24 70 -77 185 -87 185 -4 0 -5 6 -2 14
3 8 -3 16 -14 18 -16 5 -21 0 -25 -26z m180 -378 c-3 -8 -6 -5 -6 6 -1 11 2
17 5 13 3 -3 4 -12 1 -19z"/>
<path d="M2199 1923 c-16 -42 -40 -107 -43 -118 -2 -5 -6 -17 -9 -25 -3 -8
-11 -32 -17 -52 -6 -20 -18 -42 -26 -48 -7 -7 -14 -18 -14 -24 0 -6 -9 -28
-20 -49 -11 -20 -18 -37 -15 -37 3 0 -4 -10 -15 -22 -12 -13 -30 -39 -40 -59
-10 -19 -36 -51 -58 -71 -21 -19 -50 -55 -63 -79 -17 -31 -30 -43 -43 -41 -10
2 -16 -1 -13 -5 8 -13 -2 -23 -68 -72 -84 -62 -133 -118 -146 -165 -6 -23 -14
-45 -18 -51 -3 -5 -11 -30 -17 -55 -5 -25 -15 -44 -21 -43 -6 1 -9 -10 -7 -27
5 -44 -13 -37 -20 8 -20 109 -134 267 -223 308 -49 23 -101 61 -133 96 -14 15
-30 28 -36 28 -16 0 -94 86 -94 104 0 8 -9 18 -20 21 -18 6 -24 17 -21 38 0 4
-4 7 -9 7 -9 0 -28 37 -34 65 -1 6 -9 26 -18 45 -8 19 -28 87 -43 150 -36 153
-35 150 -46 150 -18 0 -46 -84 -48 -140 -3 -97 26 -291 52 -355 43 -105 68
-155 98 -200 43 -64 155 -172 208 -201 25 -14 73 -41 106 -59 33 -19 66 -34
72 -34 19 -1 115 -66 138 -93 20 -23 38 -57 49 -90 10 -32 35 -20 42 20 16 92
50 124 254 237 58 33 125 75 150 94 24 20 53 43 64 51 10 8 26 23 35 34 9 10
23 26 32 35 28 29 81 101 74 101 -3 0 3 10 14 21 11 12 30 47 42 78 13 31 25
58 28 61 18 15 39 163 36 247 -6 143 -37 243 -77 243 -5 0 -13 -12 -19 -27z"/>
<path d="M1500 1863 c0 -21 3 -24 9 -14 5 8 7 20 4 28 -8 21 -13 15 -13 -14z"/>
<path d="M586 1792 c-2 -4 4 -9 15 -9 11 -1 17 2 14 8 -7 11 -22 12 -29 1z"/>
<path d="M287 1703 c-4 -3 -7 -13 -7 -22 1 -13 3 -13 11 2 11 19 8 33 -4 20z"/>
<path d="M285 1650 c3 -5 8 -10 11 -10 2 0 4 5 4 10 0 6 -5 10 -11 10 -5 0 -7
-4 -4 -10z"/>
<path d="M270 1610 c0 -5 7 -7 15 -4 8 4 15 8 15 10 0 2 -7 4 -15 4 -8 0 -15
-4 -15 -10z"/>
<path d="M260 1580 c0 -5 7 -7 15 -4 8 4 15 8 15 10 0 2 -7 4 -15 4 -8 0 -15
-4 -15 -10z"/>
<path d="M1536 1021 c-3 -5 0 -23 8 -41 9 -23 16 -29 21 -19 5 7 4 14 -2 16
-5 2 -8 15 -5 28 4 24 -11 35 -22 16z"/>
<path d="M1544 680 c0 -11 4 -20 8 -20 4 0 8 9 8 20 0 11 -4 20 -8 20 -4 0 -8
-9 -8 -20z"/>
</g>
</svg>
